HIERARCHY
ROOT joint_Root
{
	OFFSET 0.0 0.0 0.0
	CHANNELS 6 Xposition Yposition Zposition Zrotation Xrotation Yrotation 
	JOINT Hips
	{
		OFFSET 4.5925 91.4895 -427.239
		CHANNELS 6 Xposition Yposition Zposition Zrotation Xrotation Yrotation 
		JOINT Spine
		{
			OFFSET 15.7357 0.0 0.0
			CHANNELS 6 Xposition Yposition Zposition Zrotation Xrotation Yrotation 
			JOINT Chest
			{
				OFFSET 8.98455 -0.406207 0.0
				CHANNELS 6 Xposition Yposition Zposition Zrotation Xrotation Yrotation 
				JOINT Neck
				{
					OFFSET 16.3773 0.0 0.0
					CHANNELS 6 Xposition Yposition Zposition Zrotation Xrotation Yrotation 
					JOINT Head
					{
						OFFSET 6.45672 0.0 0.0
						CHANNELS 6 Xposition Yposition Zposition Zrotation Xrotation Yrotation 
						End Site
						{
							OFFSET 0.0 0.0 0.0
						}
					}
				}
				JOINT Shoulder_L
				{
					OFFSET 12.9942 -0.242716 4.98039
					CHANNELS 6 Xposition Yposition Zposition Zrotation Xrotation Yrotation 
					JOINT UpperArm_L
					{
						OFFSET 5.34809 0.0 0.0
						CHANNELS 6 Xposition Yposition Zposition Zrotation Xrotation Yrotation 
						JOINT LowerArm_L
						{
							OFFSET 24.3286 1.87007e-05 0.0
							CHANNELS 6 Xposition Yposition Zposition Zrotation Xrotation Yrotation 
							JOINT Hand_L
							{
								OFFSET 22.2916 0.0 0.0
								CHANNELS 6 Xposition Yposition Zposition Zrotation Xrotation Yrotation 
								End Site
								{
									OFFSET 0.0 0.0 0.0
								}
							}
						}
					}
				}
				JOINT Shoulder_R
				{
					OFFSET 12.9945 -0.242716 -4.98039
					CHANNELS 6 Xposition Yposition Zposition Zrotation Xrotation Yrotation 
					JOINT UpperArm_R
					{
						OFFSET -5.34813 0.0 0.0
						CHANNELS 6 Xposition Yposition Zposition Zrotation Xrotation Yrotation 
						JOINT LowerArm_R
						{
							OFFSET -24.3289 0.000322201 0.0
							CHANNELS 6 Xposition Yposition Zposition Zrotation Xrotation Yrotation 
							JOINT Hand_R
							{
								OFFSET -22.2915 -0.000108084 0.0
								CHANNELS 6 Xposition Yposition Zposition Zrotation Xrotation Yrotation 
								End Site
								{
									OFFSET 0.0 0.0 0.0
								}
							}
						}
					}
				}
			}
		}
		JOINT UpperLeg_L
		{
			OFFSET -2.19248 -6.46944 0.0
			CHANNELS 6 Xposition Yposition Zposition Zrotation Xrotation Yrotation 
			JOINT LowerLeg_L
			{
				OFFSET 39.0811 0.0 -1.23785e-05
				CHANNELS 6 Xposition Yposition Zposition Zrotation Xrotation Yrotation 
				JOINT Foot_L
				{
					OFFSET 40.9854 0.0 -1.26872e-05
					CHANNELS 6 Xposition Yposition Zposition Zrotation Xrotation Yrotation 
					JOINT Toes_L
					{
						OFFSET 11.7543 0.0 0.0
						CHANNELS 6 Xposition Yposition Zposition Zrotation Xrotation Yrotation 
						End Site
						{
							OFFSET 0.0 0.0 0.0
						}
					}
				}
			}
		}
		JOINT UpperLeg_R
		{
			OFFSET -2.19251 6.46944 0.0
			CHANNELS 6 Xposition Yposition Zposition Zrotation Xrotation Yrotation 
			JOINT LowerLeg_R
			{
				OFFSET -39.0811 -0.00228153 -0.0401928
				CHANNELS 6 Xposition Yposition Zposition Zrotation Xrotation Yrotation 
				JOINT Foot_R
				{
					OFFSET -40.9854 0.0 0.0
					CHANNELS 6 Xposition Yposition Zposition Zrotation Xrotation Yrotation 
					JOINT Toes_R
					{
						OFFSET -11.7543 0.0 0.0
						CHANNELS 6 Xposition Yposition Zposition Zrotation Xrotation Yrotation 
						End Site
						{
							OFFSET 0.0 0.0 0.0
						}
					}
				}
			}
		}
	}
}
MOTION
Frames:	8
Frame Time:	0.0333333
0.000000 0.000000 0.000000 0.000000 0.000000 -0.000000 141.177000 88.395300 -10.249100 89.137300 -12.058500 2.467910 15.735700 0.000005 -0.000001 85.452200 85.425000 -86.385400 8.984550 -0.406207 -0.000000 1.350520 -0.672949 -1.856820 16.377300 -0.000001 -0.000001 -2.884750 2.242860 -3.763520 6.456720 -0.000001 -0.000000 -10.296200 3.356570 -6.080540 12.994200 -0.242716 4.980390 -91.408200 4.888020 -73.907300 5.348090 -0.000007 -0.000001 -59.601400 26.092000 -16.556400 24.328600 0.000019 0.000005 10.320700 24.888500 -23.398200 22.291600 -0.000001 0.000005 11.207200 5.218110 2.261500 12.994500 -0.242716 -4.980390 88.527300 10.168900 -81.714900 -5.348130 -0.000001 -0.000004 -68.892100 22.736100 -0.440599 -24.328900 0.000322 -0.000009 1.701480 6.017810 -15.830300 -22.291500 -0.000108 -0.000004 12.189600 5.361240 -1.717480 -2.192480 -6.469440 -0.000000 -179.995000 -10.681100 -7.631190 39.081100 -0.000007 -0.000012 0.034559 -0.041090 40.064400 40.985400 -0.000006 -0.000013 2.697770 -7.069220 -78.655600 11.754300 -0.000000 0.000003 -1.273260 -1.617160 -16.208800 -2.192510 6.469440 -0.000001 169.915000 2.572470 170.658000 -39.081100 -0.002282 -0.040193 0.162584 -0.071017 65.989300 -40.985400 0.000008 0.000006 2.214580 1.552980 -53.855200 -11.754300 -0.000006 -0.000006 -0.018266 -0.157490 -23.004500
0.000000 0.000000 0.000000 0.000000 0.000000 -0.000000 141.226000 89.094100 -8.197150 88.434100 -11.394400 2.361770 15.735700 0.000005 -0.000001 76.889800 85.275900 -77.475400 8.984550 -0.406207 -0.000000 1.426500 -2.109630 -1.144090 16.377300 -0.000001 -0.000001 -2.986280 2.039810 -3.752890 6.456720 -0.000001 -0.000000 -10.364200 3.659350 -5.871650 12.994200 -0.242716 4.980390 -91.230300 4.452720 -74.537700 5.348090 -0.000007 -0.000001 -57.608200 24.493900 -19.692200 24.328600 0.000019 0.000005 10.573400 24.964500 -23.858500 22.291600 -0.000001 0.000005 12.169700 5.210390 2.457650 12.994500 -0.242716 -4.980390 88.481500 10.008400 -81.327100 -5.348130 -0.000001 -0.000004 -68.885000 22.881900 -0.066994 -24.328900 0.000322 -0.000009 1.655990 5.189820 -17.737100 -22.291500 -0.000108 -0.000004 12.515500 5.371040 -2.018020 -2.192480 -6.469440 -0.000000 -179.219000 -10.279200 -5.014110 39.081100 -0.000007 -0.000012 0.025685 -0.033469 37.501500 40.985400 -0.000006 -0.000013 2.759900 -6.393540 -77.207200 11.754300 -0.000000 0.000003 -0.476186 -0.584268 -16.611800 -2.192510 6.469440 -0.000001 172.362000 3.324310 167.823000 -39.081100 -0.002282 -0.040193 0.124188 -0.055341 65.427300 -40.985400 0.000008 0.000006 3.031140 0.334074 -56.418900 -11.754300 -0.000006 -0.000006 -0.016659 -0.148022 -22.615100
0.000000 0.000000 0.000000 0.000000 0.000000 -0.000000 141.245000 89.866300 -6.273870 87.844200 -10.868900 1.708200 15.735700 0.000005 -0.000001 70.518400 85.291100 -70.783600 8.984550 -0.406207 -0.000000 1.107550 -3.124140 -0.499828 16.377300 -0.000001 -0.000001 -3.121920 1.833590 -3.664200 6.456720 -0.000001 -0.000000 -10.280500 3.704230 -5.524890 12.994200 -0.242716 4.980390 -90.995700 3.739670 -75.079800 5.348090 -0.000007 -0.000001 -56.999100 21.971900 -22.139000 24.328600 0.000019 0.000005 10.821700 24.920500 -24.401600 22.291600 -0.000001 0.000005 12.871400 5.200380 2.709250 12.994500 -0.242716 -4.980390 88.436600 9.894100 -80.974300 -5.348130 -0.000001 -0.000004 -68.867900 22.616200 0.406477 -24.328900 0.000322 -0.000009 1.758980 4.984610 -19.477100 -22.291500 -0.000108 -0.000004 12.539200 5.382150 -2.366050 -2.192480 -6.469440 -0.000000 -178.465000 -10.516800 -3.021880 39.081100 -0.000007 -0.000012 0.016737 -0.024121 34.754200 40.985400 -0.000006 -0.000013 2.824240 -5.147510 -75.283900 11.754300 -0.000000 0.000003 -0.001800 -0.026191 -17.641700 -2.192510 6.469440 -0.000001 174.919000 4.043290 165.006000 -39.081100 -0.002282 -0.040193 0.081110 -0.041307 62.071900 -40.985400 0.000008 0.000006 3.397770 -1.065780 -59.505700 -11.754300 -0.000006 -0.000006 -0.016268 -0.145657 -22.518000
0.000000 0.000000 0.000000 0.000000 0.000000 -0.000000 141.255000 90.598200 -4.393210 87.315100 -10.260500 0.698238 15.735700 0.000005 -0.000001 64.594800 85.414500 -64.517400 8.984550 -0.406207 -0.000000 0.523096 -3.938140 0.172754 16.377300 -0.000001 -0.000001 -3.262210 1.647930 -3.511080 6.456720 -0.000001 -0.000000 -10.243800 3.736740 -5.170280 12.994200 -0.242716 4.980390 -90.796200 3.083180 -75.514500 5.348090 -0.000007 -0.000001 -56.975100 19.675400 -23.925000 24.328600 0.000019 0.000005 11.018600 24.214300 -25.396100 22.291600 -0.000001 0.000005 13.395300 5.188240 3.012270 12.994500 -0.242716 -4.980390 88.387000 9.798740 -80.604700 -5.348130 -0.000001 -0.000004 -68.742700 22.712000 0.911069 -24.328900 0.000322 -0.000009 1.745770 4.588030 -20.870300 -22.291500 -0.000108 -0.000004 12.715600 5.392190 -2.685290 -2.192480 -6.469440 -0.000000 -177.789000 -10.786400 -1.446720 39.081100 -0.000007 -0.000012 0.009790 -0.015707 31.933500 40.985400 -0.000006 -0.000013 3.025090 -3.757510 -73.076200 11.754300 -0.000000 0.000003 -0.006292 -0.073470 -19.567100 -2.192510 6.469440 -0.000001 177.572000 4.712170 162.642000 -39.081100 -0.002282 -0.040193 0.043432 -0.027158 55.964500 -40.985400 0.000008 0.000006 4.246900 -1.457120 -61.958600 -11.754300 -0.000006 -0.000006 -0.016124 -0.144783 -22.482100
0.000000 0.000000 0.000000 0.000000 0.000000 -0.000000 141.221000 91.183700 -2.537660 86.985800 -9.495180 -0.464845 15.735700 0.000005 -0.000001 58.742100 85.580000 -58.368500 8.984550 -0.406207 -0.000000 -0.192348 -4.611900 0.739328 16.377300 -0.000001 -0.000001 -3.490070 1.472220 -3.315150 6.456720 -0.000001 -0.000000 -10.285800 3.761890 -4.625330 12.994200 -0.242716 4.980390 -90.615000 2.456810 -75.941900 5.348090 -0.000007 -0.000001 -57.156700 18.046000 -25.104700 24.328600 0.000019 0.000005 11.186500 22.795400 -27.041700 22.291600 -0.000001 0.000005 13.869700 5.188140 3.015000 12.994500 -0.242716 -4.980390 88.342700 9.694200 -80.250300 -5.348130 -0.000001 -0.000004 -68.645500 22.733100 1.364010 -24.328900 0.000322 -0.000009 1.767370 4.437740 -21.753000 -22.291500 -0.000108 -0.000004 12.920100 5.397470 -2.855270 -2.192480 -6.469440 -0.000000 -177.368000 -10.756200 -0.162246 39.081100 -0.000007 -0.000012 0.004454 -0.007971 29.192500 40.985400 -0.000006 -0.000013 3.094330 -2.609110 -71.063300 11.754300 -0.000000 0.000003 -0.011991 -0.117970 -21.386000 -2.192510 6.469440 -0.000001 179.976000 5.493750 160.748000 -39.081100 -0.002282 -0.040193 0.019105 -0.014256 48.032000 -40.985400 0.000008 0.000006 4.274100 0.280143 -63.004300 -11.754300 -0.000006 -0.000006 -0.016320 -0.145978 -22.531100
0.000000 0.000000 0.000000 0.000000 0.000000 -0.000000 141.098000 91.511900 -0.616496 86.857700 -8.556730 -1.519790 15.735700 0.000005 -0.000001 53.094700 85.679800 -52.480800 8.984550 -0.406207 -0.000000 -0.828229 -5.233440 1.190050 16.377300 -0.000001 -0.000001 -3.772430 1.379060 -3.053410 6.456720 -0.000001 -0.000000 -10.481200 3.802740 -3.955090 12.994200 -0.242716 4.980390 -90.463200 1.895860 -76.267900 5.348090 -0.000007 -0.000001 -57.262800 17.327300 -25.850100 24.328600 0.000019 0.000005 11.533100 21.215100 -29.419200 22.291600 -0.000001 0.000005 14.287900 5.194020 2.869240 12.994500 -0.242716 -4.980390 88.324500 9.585110 -80.036200 -5.348130 -0.000001 -0.000004 -68.564300 22.522700 1.677220 -24.328900 0.000322 -0.000009 1.811270 4.475380 -22.072600 -22.291500 -0.000108 -0.000004 12.945200 5.398710 -2.895760 -2.192480 -6.469440 -0.000000 -177.106000 -10.348300 1.068670 39.081100 -0.000007 -0.000012 0.000852 -0.001683 26.839900 40.985400 -0.000006 -0.000013 2.654810 -1.673360 -69.666000 11.754300 -0.000000 0.000003 -0.016479 -0.146953 -22.575000 -2.192510 6.469440 -0.000001 -177.714000 7.181300 159.023000 -39.081100 -0.002282 -0.040193 0.006334 -0.003661 39.840700 -40.985400 0.000008 0.000006 3.446290 3.563740 -62.133700 -11.754300 -0.000006 -0.000006 -0.017198 -0.151242 -22.747500
0.000000 0.000000 0.000000 0.000000 0.000000 -0.000000 140.870000 91.517700 1.477500 86.909500 -7.444530 -2.365460 15.735700 0.000005 -0.000001 48.119200 85.741900 -47.329000 8.984550 -0.406207 -0.000000 -1.386710 -5.747120 1.511230 16.377300 -0.000001 -0.000001 -4.071060 1.273870 -2.770300 6.456720 -0.000001 -0.000000 -10.736800 3.787880 -3.290590 12.994200 -0.242716 4.980390 -90.348800 1.458470 -76.548400 5.348090 -0.000007 -0.000001 -57.108800 17.550000 -26.225400 24.328600 0.000019 0.000005 11.861700 19.472000 -32.215300 22.291600 -0.000001 0.000005 14.593300 5.213370 2.381590 12.994500 -0.242716 -4.980390 88.303100 9.555360 -79.881200 -5.348130 -0.000001 -0.000004 -68.486000 22.010400 2.032620 -24.328900 0.000322 -0.000009 1.900740 4.737690 -21.901600 -22.291500 -0.000108 -0.000004 12.949500 5.396630 -2.828300 -2.192480 -6.469440 -0.000000 -176.858000 -9.983570 2.452620 39.081100 -0.000007 -0.000012 -0.001343 0.002889 24.930900 40.985400 -0.000006 -0.000013 2.739390 -0.695132 -68.894600 11.754300 -0.000000 0.000003 -0.022655 -0.181587 -24.001200 -2.192510 6.469440 -0.000001 -175.098000 10.098700 157.419000 -39.081100 -0.002282 -0.040193 0.000595 0.004270 32.321900 -40.985400 0.000008 0.000006 2.654070 6.605260 -61.584900 -11.754300 -0.000006 -0.000006 -0.017728 -0.154365 -22.875900
0.000000 0.000000 0.000000 0.000000 0.000000 -0.000000 140.561000 91.191400 3.766820 86.953900 -6.320480 -3.147700 15.735700 0.000005 -0.000001 44.559400 85.856000 -43.587300 8.984550 -0.406207 -0.000000 -1.902670 -5.985860 1.845720 16.377300 -0.000001 -0.000001 -4.362700 1.137140 -2.569730 6.456720 -0.000001 -0.000000 -11.202300 3.646460 -2.692530 12.994200 -0.242716 4.980390 -90.326700 1.385270 -76.726900 5.348090 -0.000007 -0.000001 -56.500700 18.625700 -26.524400 24.328600 0.000019 0.000005 11.863900 17.413600 -35.069400 22.291600 -0.000001 0.000005 14.552900 5.235990 1.799500 12.994500 -0.242716 -4.980390 88.240600 9.736420 -79.705500 -5.348130 -0.000001 -0.000004 -68.267900 21.270700 2.367940 -24.328900 0.000322 -0.000009 1.900590 4.895640 -21.258800 -22.291500 -0.000108 -0.000004 13.149100 5.393570 -2.729720 -2.192480 -6.469440 -0.000000 -176.225000 -10.501400 3.796670 39.081100 -0.000007 -0.000012 -0.002462 0.005593 23.760300 40.985400 -0.000006 -0.000013 2.634440 1.074610 -69.056600 11.754300 -0.000000 0.000003 -0.027434 -0.205467 -24.988500 -2.192510 6.469440 -0.000001 -171.717000 13.430900 155.275000 -39.081100 -0.002282 -0.040193 -0.005055 0.016658 26.661500 -40.985400 0.000008 0.000006 4.297290 8.304630 -60.823600 -11.754300 -0.000006 -0.000006 -0.017622 -0.153741 -22.850300
